<svg xmlns="http://www.w3.org/2000/svg" viewBox="0 0 950 950">
  <defs>
    <!-- Degradado dorado -->
    <linearGradient id="goldGradient" x1="160" y1="140" x2="790" y2="860" gradientUnits="userSpaceOnUse">
      <stop offset="0" stop-color="#fff2b0"/>
      <stop offset="0.22" stop-color="#ffd36a"/>
      <stop offset="0.5" stop-color="#d4a72c"/>
      <stop offset="0.78" stop-color="#ffdf7e"/>
      <stop offset="1" stop-color="#b88314"/>
    </linearGradient>

    <!-- Sombra -->
    <filter id="softShadow" x="-20%" y="-20%" width="140%" height="140%">
      <feDropShadow dx="0" dy="14" stdDeviation="14" flood-color="#000" flood-opacity="0.28"/>
    </filter>
  </defs>

  <!-- Escudo -->
  <path
    filter="url(#softShadow)"
    d="M475 60
       C560 110 680 155 820 185
       V520
       C820 705 690 845 475 910
       C260 845 130 705 130 520
       V185
       C270 155 390 110 475 60 Z"
    fill="url(#goldGradient)"
    stroke="#8a5a0a"
    stroke-width="18"
    stroke-linejoin="round"
  />

  <!-- Brillo interno -->
  <path
    d="M475 95
       C552 140 660 178 790 205
       V518
       C790 680 675 800 475 860
       C275 800 160 680 160 518
       V205
       C290 178 398 140 475 95 Z"
    fill="none"
    stroke="#fff6c9"
    stroke-opacity="0.45"
    stroke-width="10"
    stroke-linejoin="round"
  />

  <!-- Candado (mismo color que el borde del escudo) -->
  <path
    fill="#8a5a0a"
    d="M334.62,436.16c0-19.41-.11-38.06,0-56.71.5-73.36,52.18-131.51,125.12-140.87,68.54-8.8,133.78,37,151.25,106.93,2.85,11.4,3.76,23.45,4.2,35.25.68,18.2.18,36.44.18,54.47,34.66,6.73,43.39,17.3,43.39,51.65q0,90.57,0,181.13c0,29.66-14.89,44.45-44.76,44.46q-139,.06-278.06,0c-29.87,0-44.68-14.79-44.7-44.51q-.06-93.11,0-186.22C291.24,452.93,303.91,439.18,334.62,436.16Zm34.48,78.57v122.5h211V514.73Zm169.22-78.27c0-22.58,1.65-44.68-.4-66.44-2.82-30.06-28-52.77-57.76-55.25-28.62-2.4-58.67,14.93-64.6,42.91-5.41,25.53-4.16,52.47-5.85,78.78Z"
  />
</svg>
